<svg width="24" height="24" viewBox="0 0 24 24" xmlns="http://www.w3.org/2000/svg" xmlns:xlink="http://www.w3.org/1999/xlink">
    <defs>
        <path id="rdo3vnksya" d="M0 0h16v10H0z"/>
    </defs>
    <g fill="none" fill-rule="evenodd">
        <path d="M0 0h24v24H0z"/>
        <g transform="translate(4 7)">
            <mask id="lfwj1pur4b" fill="#fff">
                <use xlink:href="#rdo3vnksya"/>
            </mask>
            <path d="M14.419 0H1.58C.708 0 0 .708 0 1.581v6.838C0 9.292.708 10 1.58 10H14.42c.873 0 1.58-.708 1.58-1.581V1.581C16 .708 15.293 0 14.42 0zm0 1.5a.08.08 0 0 1 .08.081v6.838a.08.08 0 0 1-.08.081H1.58a.08.08 0 0 1-.081-.081V1.581a.08.08 0 0 1 .08-.081H14.42z" fill="#4C4C4C" mask="url(#lfwj1pur4b)"/>
        </g>
        <path d="M11.413 11.316V7.684c0-.378.307-.684.685-.684h.13c.378 0 .685.306.685.684v3.631a.685.685 0 0 1-.685.685h-.13a.685.685 0 0 1-.685-.684M7.546 11.316V7.684c0-.378.307-.684.685-.684h.13c.378 0 .685.306.685.684v3.631A.685.685 0 0 1 8.36 12h-.13a.685.685 0 0 1-.685-.684M15.28 11.316V7.684c0-.378.307-.684.685-.684h.13c.378 0 .685.306.685.684v3.631a.685.685 0 0 1-.685.685h-.13a.685.685 0 0 1-.685-.684" fill="#4C4C4C"/>
    </g>
</svg>
