<svg width="10" height="10" viewBox="0 0 10 10" xmlns="http://www.w3.org/2000/svg">
    <g fill="none" fill-rule="evenodd">
        <path d="M0 0h10v10H0z"/>
        <path d="M0 0h10v10H0z"/>
        <g fill="#4C4C4C">
            <path d="M8.718 5.138a.62.62 0 0 0-.611.52 3.132 3.132 0 0 1-3.755 2.535 3.117 3.117 0 0 1-2.382-2.38 3.13 3.13 0 0 1 3.055-3.8V.763A4.38 4.38 0 0 0 .65 5.203c.034 2.321 1.988 4.276 4.31 4.31A4.383 4.383 0 0 0 9.34 5.855a.626.626 0 0 0-.623-.717"/>
            <path d="m5.119 2.787 2.218-1.281a.125.125 0 0 0 0-.216L5.12.008a.063.063 0 0 0-.094.055v2.67c0 .048.052.078.094.054"/>
        </g>
    </g>
</svg>
