<svg width="10" height="10" viewBox="0 0 10 10" xmlns="http://www.w3.org/2000/svg">
    <g fill="none" fill-rule="evenodd">
        <path d="M0 0h10v10H0z"/>
        <path d="M0 0h10v10H0z"/>
        <g fill="#4C4C4C">
            <path d="M5.235 3.46a.625.625 0 0 0 0-.884L3.467.808a.622.622 0 0 0-.444-.182L3.022.625H3.02c-.16 0-.322.06-.444.183L.808 2.576a.625.625 0 0 0 .884.884l.705-.705V7.5a.625.625 0 1 0 1.25 0V2.756l.704.704c.244.244.64.244.884 0M9.192 6.54a.624.624 0 0 0-.884 0l-.705.706V2.5a.625.625 0 1 0-1.25 0v4.743l-.704-.703a.625.625 0 1 0-.884.883l1.768 1.768a.621.621 0 0 0 .443.183h.004c.16 0 .322-.06.444-.183l1.768-1.768a.624.624 0 0 0 0-.883"/>
        </g>
    </g>
</svg>
