<svg width="24" height="24" viewBox="0 0 24 24" xmlns="http://www.w3.org/2000/svg" xmlns:xlink="http://www.w3.org/1999/xlink">
    <defs>
        <path id="t3b1sk7qea" d="M0 0h16v16H0z"/>
    </defs>
    <g fill="none" fill-rule="evenodd">
        <path d="M0 0h24v24H0z"/>
        <path d="M8.225 14.578c.065-.143.098-.336.098-.578 0-.244-.034-.438-.1-.581a.6.6 0 0 0-.29-.306 1.17 1.17 0 0 0-.49-.09h-.356v1.953h.38c.19 0 .347-.03.473-.091a.6.6 0 0 0 .285-.307" fill="#4C4C4C"/>
        <g transform="translate(4 4)">
            <mask id="u8urzigm1b" fill="#fff">
                <use xlink:href="#t3b1sk7qea"/>
            </mask>
            <path d="M13.84 10.288c0 .314-.066.586-.2.816a1.332 1.332 0 0 1-.561.529 1.765 1.765 0 0 1-.82.183 1.81 1.81 0 0 1-.901-.219 1.53 1.53 0 0 1-.607-.63 2.05 2.05 0 0 1-.216-.962c0-.376.077-.701.229-.977.152-.275.358-.484.619-.629a1.78 1.78 0 0 1 .87-.215c.275 0 .525.051.75.155.227.103.41.247.55.43.14.184.223.393.249.625h-.942a.49.49 0 0 0-.202-.294.654.654 0 0 0-.384-.106.732.732 0 0 0-.42.118.748.748 0 0 0-.27.343 1.43 1.43 0 0 0-.092.54c0 .32.067.569.2.745.132.176.325.264.577.266.217-.002.382-.05.497-.146a.493.493 0 0 0 .177-.391h-.655v-.664h1.553v.483zm-1.34 3.98a.232.232 0 0 1-.232.232H3.732a.232.232 0 0 1-.232-.232V13h9v1.268zM2.159 11.767V8.232h1.333c.362 0 .675.071.94.211.265.141.47.345.613.611.144.266.215.582.215.946s-.071.68-.214.945a1.464 1.464 0 0 1-.61.61 1.945 1.945 0 0 1-.934.212H2.159zm8.3-3.535-1.04 3.535h-.892l-.611-2.021h-.03l-.61 2.021h-.888l-1.04-3.535h1.035l.498 2.212h.029l.58-2.212h.822l.586 2.222h.029l.498-2.222h1.035zm-6.96-6.5c0-.128.105-.232.233-.232h4.594v2.511c0 .917.746 1.663 1.663 1.663h2.51V7h-9V1.732zm6.327.215 2.227 2.227H9.989a.164.164 0 0 1-.163-.163V1.947zM15 7h-1V4l-4-4H3.732C2.776 0 2 .775 2 1.732V7H1a1 1 0 0 0-1 1v4a1 1 0 0 0 1 1h1v1.268C2 15.224 2.776 16 3.732 16h8.536c.957 0 1.732-.776 1.732-1.732V13h1a1 1 0 0 0 1-1V8a1 1 0 0 0-1-1z" fill="#4C4C4C" mask="url(#u8urzigm1b)"/>
        </g>
    </g>
</svg>
