<svg width="24" height="24" viewBox="0 0 24 24" xmlns="http://www.w3.org/2000/svg">
    <g fill="none" fill-rule="evenodd">
        <path d="M0 0h24v24H0z"/>
        <g fill="#4C4C4C">
            <path d="M12 8a4 4 0 1 0 0 8 4 4 0 0 0 0-8m0 1.5c1.378 0 2.5 1.121 2.5 2.5s-1.122 2.5-2.5 2.5A2.503 2.503 0 0 1 9.5 12c0-1.379 1.122-2.5 2.5-2.5M18.5 15.75v2.05a.7.7 0 0 1-.7.7h-2.05a.75.75 0 0 0 0 1.5H18a2 2 0 0 0 2-2v-2.25a.75.75 0 0 0-1.5 0M8.25 18.5H6.2a.7.7 0 0 1-.7-.7v-2.05a.75.75 0 0 0-1.5 0V18a2 2 0 0 0 2 2h2.25a.75.75 0 0 0 0-1.5M8.25 4H6a2 2 0 0 0-2 2v2.25a.75.75 0 0 0 1.5 0V6.2a.7.7 0 0 1 .7-.7h2.05a.75.75 0 0 0 0-1.5M18 4h-2.25a.75.75 0 0 0 0 1.5h2.05a.7.7 0 0 1 .7.7v2.05a.75.75 0 0 0 1.5 0V6a2 2 0 0 0-2-2"/>
        </g>
    </g>
</svg>
