<svg width="16" height="16" viewBox="0 0 16 16" xmlns="http://www.w3.org/2000/svg" xmlns:xlink="http://www.w3.org/1999/xlink">
    <defs>
        <path id="tkh8wky4xa" d="M0 0h15.319v15.984H0z"/>
    </defs>
    <g fill="none" fill-rule="evenodd">
        <path d="M8 6.752c-.689 0-1.25.56-1.25 1.25 0 .689.561 1.25 1.25 1.25s1.25-.561 1.25-1.25c0-.69-.561-1.25-1.25-1.25m0 4a2.752 2.752 0 0 1-2.75-2.75A2.752 2.752 0 0 1 8 5.252a2.752 2.752 0 0 1 2.75 2.75A2.752 2.752 0 0 1 8 10.752" fill="#4C4C4C"/>
        <g transform="translate(.34 .01)">
            <mask id="5r6p8huqyb" fill="#fff">
                <use xlink:href="#tkh8wky4xa"/>
            </mask>
            <path d="m4.289 11.373.399.32c.372.3.788.54 1.237.717l.476.187v1.637c0 .138.113.25.25.25h2a.25.25 0 0 0 .25-.25V12.6l.479-.186a4.706 4.706 0 0 0 1.239-.711l.399-.32 1.418.819a.251.251 0 0 0 .342-.092l1-1.731a.25.25 0 0 0-.092-.342L12.27 9.22l.079-.507a4.76 4.76 0 0 0 .06-.721c0-.24-.023-.475-.058-.706l-.076-.506 1.42-.82a.252.252 0 0 0 .09-.342l-.998-1.73a.258.258 0 0 0-.152-.118.258.258 0 0 0-.19.026l-1.413.815-.4-.321a4.741 4.741 0 0 0-1.24-.716l-.474-.187V1.75a.25.25 0 0 0-.25-.25h-2a.25.25 0 0 0-.25.25v1.633l-.478.186c-.45.175-.867.415-1.24.712l-.4.32-1.417-.82a.25.25 0 0 0-.342.092l-1 1.732a.247.247 0 0 0 .091.34l1.415.819-.075.505a4.67 4.67 0 0 0-.062.723c0 .24.025.476.059.706l.076.506-1.421.819a.251.251 0 0 0-.091.342l1 1.733a.246.246 0 0 0 .152.116.243.243 0 0 0 .189-.025l1.415-.816zm4.362 4.61h-2c-.965 0-1.75-.784-1.75-1.75v-.636a6.091 6.091 0 0 1-.731-.423l-.546.314a1.742 1.742 0 0 1-1.327.175 1.741 1.741 0 0 1-1.064-.816l-1-1.732a1.753 1.753 0 0 1 .64-2.39l.554-.32a5.388 5.388 0 0 1 0-.845l-.544-.315a1.732 1.732 0 0 1-.816-1.061 1.742 1.742 0 0 1 .175-1.33l1-1.731a1.738 1.738 0 0 1 1.063-.815 1.726 1.726 0 0 1 1.328.174l.552.32c.234-.157.479-.298.733-.421V1.75c0-.965.785-1.75 1.75-1.75h2c.965 0 1.75.785 1.75 1.75v.638c.254.125.499.266.732.423l.545-.314a1.725 1.725 0 0 1 1.328-.175c.452.12.829.41 1.063.816l1 1.73a1.756 1.756 0 0 1-.64 2.392l-.553.318c.012.143.017.279.017.414 0 .14-.006.283-.017.433l.543.314a1.752 1.752 0 0 1 .64 2.39l-1 1.732a1.734 1.734 0 0 1-1.061.816c-.45.123-.923.059-1.33-.175l-.55-.318c-.235.156-.48.296-.734.42v.63c0 .965-.785 1.75-1.75 1.75z" fill="#4C4C4C" mask="url(#5r6p8huqyb)"/>
        </g>
    </g>
</svg>
