<svg width="24" height="24" viewBox="0 0 24 24" xmlns="http://www.w3.org/2000/svg" xmlns:xlink="http://www.w3.org/1999/xlink">
    <defs>
        <path id="hipx3jf58a" d="M0 0h16v16H0z"/>
    </defs>
    <g fill="none" fill-rule="evenodd">
        <path d="M0 0h24v24H0z"/>
        <g transform="translate(4 4)">
            <mask id="xh82w0p7nb" fill="#fff">
                <use xlink:href="#hipx3jf58a"/>
            </mask>
            <path d="M2.292 4.682a6.382 6.382 0 0 1 4.117-1.5h7.03L11.537 1.28A.75.75 0 0 1 12.598.22l3.18 3.18a.714.714 0 0 1 .215.5c.001.01.007.02.007.03v.003c0 .01-.006.02-.007.03a.714.714 0 0 1-.215.5l-3.18 3.18a.75.75 0 0 1-1.061-1.06l1.902-1.901H6.409A4.914 4.914 0 0 0 1.5 9.59 4.914 4.914 0 0 0 6.409 14.5H13.251c.414 0 .749.335.749.749v.002a.749.749 0 0 1-.749.749H6.409a6.382 6.382 0 0 1-4.117-1.5A6.396 6.396 0 0 1 0 9.59c0-1.97.892-3.732 2.292-4.908" fill="#4C4C4C" mask="url(#xh82w0p7nb)"/>
        </g>
    </g>
</svg>
