<svg width="24" height="24" viewBox="0 0 24 24" xmlns="http://www.w3.org/2000/svg">
    <g fill="none" fill-rule="evenodd">
        <path d="M0 0h24v24H0z"/>
        <g fill="#4C4C4C">
            <path d="M10 4a6 6 0 1 0 0 12 5.971 5.971 0 0 0 3.675-1.264l5.045 5.044c.146.147.338.22.53.22a.749.749 0 0 0 .53-1.28l-5.044-5.045A5.971 5.971 0 0 0 16 10a6 6 0 0 0-6-6m0 1.5c2.481 0 4.5 2.019 4.5 4.5a4.453 4.453 0 0 1-.949 2.755l-.349.448-.447.348A4.45 4.45 0 0 1 10 14.5 4.505 4.505 0 0 1 5.5 10c0-2.481 2.019-4.5 4.5-4.5"/>
            <path d="M10 7.106a.75.75 0 0 0-.75.75v1.5h-1.5a.75.75 0 0 0 0 1.5h1.5v1.5a.75.75 0 0 0 1.5 0v-1.5h1.5a.75.75 0 0 0 0-1.5h-1.5v-1.5a.75.75 0 0 0-.75-.75"/>
        </g>
    </g>
</svg>
