<svg width="100" height="100" viewBox="0 0 100 100" xmlns="http://www.w3.org/2000/svg">
    <g fill="none" fill-rule="evenodd">
        <path d="M80 0c11.046 0 20 8.954 20 20v60c0 11.046-8.954 20-20 20H20C8.954 100 0 91.046 0 80V20C0 8.954 8.954 0 20 0h60zm-4.142 6H20C12.28 6 6 12.28 6 20v60c0 7.72 6.28 14 14 14h60c7.72 0 14-6.28 14-14V24.143a3.979 3.979 0 0 0-1.171-2.83L78.686 7.172A3.971 3.971 0 0 0 75.858 6z" fill="#FFF"/>
        <rect width="16" height="16" rx="8" transform="translate(8 8)"/>
    </g>
</svg>
